<svg width="24" height="24" viewBox="0 0 24 24" fill="none" xmlns="http://www.w3.org/2000/svg">
<g id="react-icons/io5/IoPencilOutline">
<path id="Vector (Stroke)" fill-rule="evenodd" clip-rule="evenodd" d="M19.1897 2.68933C19.471 2.40824 19.8523 2.25034 20.25 2.25034C20.6477 2.25034 21.029 2.40824 21.3103 2.68933L20.7801 3.21987L21.3107 2.68968C21.5918 2.97095 21.7497 3.35233 21.7497 3.74999C21.7497 4.14764 21.5918 4.52902 21.3107 4.8103L21.3106 4.81036L20.2503 5.87114C20.1096 6.01186 19.9188 6.09093 19.7198 6.09093C19.5209 6.09093 19.3301 6.01186 19.1894 5.87114L18.1291 4.81036C17.8363 4.51745 17.8364 4.04266 18.1292 3.74981L19.1895 2.6895L19.7198 3.21979L19.1897 2.68933ZM17.0682 5.12108C17.2672 5.12097 17.4582 5.2 17.5989 5.34075L18.6592 6.40106C18.8 6.54182 18.879 6.73276 18.8789 6.93182C18.8788 7.13088 18.7996 7.32173 18.6586 7.46233L5.63863 20.4528C5.58336 20.5079 5.51982 20.5541 5.4503 20.5897L3.34139 21.6678C3.05177 21.8158 2.69971 21.7603 2.4697 21.5303C2.23968 21.3003 2.18414 20.9483 2.33218 20.6587L3.4103 18.5493C3.44585 18.4797 3.49204 18.4162 3.5472 18.3609L16.5377 5.34134C16.6783 5.20043 16.8691 5.12119 17.0682 5.12108Z" fill="#212324"/>
</g>
</svg>
