<svg width="24" height="24" viewBox="0 0 24 24" fill="none" xmlns="http://www.w3.org/2000/svg">
<g id="icons / nutrition-outline">
<path id="Vector" d="M16.5 6.00004C14.9878 5.86457 13.5 6.75004 12 6.75004C10.5 6.75004 9.01172 5.85942 7.5 6.00004C4.5 6.28129 3 9.00004 3 13.5C3 17.25 6 22.5 8.2125 22.5C10.425 22.5 10.6472 21.375 12 21.375C13.3528 21.375 13.5745 22.5 15.7875 22.5C18.0005 22.5 21 17.25 21 13.5C21 9.00004 19.6406 6.28129 16.5 6.00004Z" stroke="#212324" stroke-miterlimit="10"/>
<path id="Vector_2" d="M15.1837 3.89679C14.1994 4.88117 13.0434 5.16242 12.4265 5.24633C12.3701 5.25446 12.3126 5.24962 12.2584 5.2322C12.2041 5.21478 12.1546 5.18522 12.1134 5.14577C12.0723 5.10632 12.0407 5.05802 12.0211 5.00454C12.0014 4.95106 11.9942 4.8938 12 4.83711C12.1112 3.78268 12.5853 2.79963 13.3411 2.05601C14.3723 1.02476 15.4973 0.795076 16.0936 0.750545C16.1493 0.745465 16.2053 0.752893 16.2578 0.772285C16.3102 0.791677 16.3576 0.822542 16.3966 0.862623C16.4355 0.902704 16.465 0.950986 16.4829 1.00394C16.5008 1.05689 16.5067 1.11317 16.5 1.16867C16.3823 2.2007 15.9183 3.16239 15.1837 3.89679Z" fill="#212324"/>
<path id="Vector_3" d="M10.125 16.5C10.7463 16.5 11.25 15.4926 11.25 14.25C11.25 13.0074 10.7463 12 10.125 12C9.50368 12 9 13.0074 9 14.25C9 15.4926 9.50368 16.5 10.125 16.5Z" fill="#212324"/>
<path id="Vector_4" d="M13.875 16.5C14.4963 16.5 15 15.4926 15 14.25C15 13.0074 14.4963 12 13.875 12C13.2537 12 12.75 13.0074 12.75 14.25C12.75 15.4926 13.2537 16.5 13.875 16.5Z" fill="#212324"/>
</g>
</svg>
